#!OML:ASF E:\Mandelcareful walks\Project 1\Capture day 1\Session 1\Subject1.ASF
:FULLY-SPECIFIED
:DEGREES
1764
root -20.7527 16.9267 4.82008 365.62 74.675 357.076
lowerback -6.05103 3.36443 -0.890871
upperback 1.32961 4.61878 -1.19388
thorax 4.79516 2.28173 -0.270848
lowerneck -21.6615 4.12908 2.65988
upperneck 33.0759 8.46194 -6.56382
head 15.7948 3.19496 -1.50275
rclavicle -3.71727e-014 1.98785e-015
rhumerus -24.9219 -1.47796 -82.1681
rradius 36.649
rwrist -16.2708
rhand -10.7002 -27.8549
rfingers 7.12502
rthumb 15.3092 -57.2683
lclavicle -3.71727e-014 1.98785e-015
lhumerus -43.6034 37.8026 59.063
lradius 15.4942
lwrist -19.5658
lhand -17.6644 -10.4168
lfingers 7.12502
lthumb 8.59419 19.3883
rfemur 21.6899 -13.0485 14.4386
rtibia 1.74873
rfoot 7.92741 -29.6377
rtoes -4.11367
lfemur -27.3782 5.11295 -21.8488
ltibia 29.0061
lfoot -16.6713 10.5983
ltoes 9.51703
1765
root -20.6248 16.9367 4.8085 365.244 75.1032 356.8
lowerback -5.95093 3.28116 -0.884518
upperback 1.27971 4.50445 -1.19422
thorax 4.68664 2.22636 -0.294281
lowerneck -21.6756 4.04048 2.58045
upperneck 33.0993 8.26469 -6.32479
head 15.7746 3.13515 -1.42761
rclavicle 3.78685e-014 -5.1684e-015
rhumerus -25.2363 -1.41574 -82.4149
rradius 36.7455
rwrist -16.1176
rhand -9.83653 -26.9476
rfingers 7.12502
rthumb 16.1411 -56.2955
lclavicle 3.78685e-014 -5.1684e-015
lhumerus -42.616 36.4007 60.5136
lradius 15.6445
lwrist -18.7428
lhand -17.6803 -10.0297
lfingers 7.12502
lthumb 8.57889 19.776
rfemur 18.0686 -13.5323 14.0241
rtibia 9.4977
rfoot 6.61231 -28.1776
rtoes -4.02429
lfemur -26.8303 4.70346 -21.8526
ltibia 28.8684
lfoot -16.8035 10.3834
ltoes 10.352
1766
root -20.5032 16.9417 4.80102 364.688 75.2096 356.568
lowerback -5.54667 3.31771 -0.982033
upperback 1.23739 4.55054 -1.1565
thorax 4.40351 2.24887 -0.224251
lowerneck -21.7768 4.01174 2.51853
upperneck 33.1699 8.13629 -6.03582
head 15.8003 3.11021 -1.31899
rclavicle 3.34455e-014 -1.19271e-015
rhumerus -25.6895 -1.26607 -82.5991
rradius 36.9721
rwrist -16.1979
rhand -9.05772 -26.6085
rfingers 7.12502
rthumb 16.8909 -55.894
lclavicle 3.34455e-014 -1.19271e-015
lhumerus -41.7627 34.9283 61.8795
lradius 15.7766
lwrist -18.286
lhand -17.5875 -10.2921
lfingers 7.12502
lthumb 8.66841 19.5099
rfemur 16.2594 -13.5895 13.605
rtibia 14.0128
rfoot 7.04259 -27.3243
rtoes -4.70436
lfemur -25.945 4.47054 -21.8413
ltibia 28.6733
lfoot -16.9581 10.3159
ltoes 10.734
1767
root -20.3763 16.9477 4.79342 365.063 75.5094 357.279
lowerback -5.21249 3.28183 -1.30771
upperback 1.20344 4.51752 -1.14224
thorax 4.15324 2.2268 -0.0549179
lowerneck -21.8107 3.92468 2.35073
upperneck 33.1839 7.98741 -5.82064
head 15.7827 3.05652 -1.22821
rclavicle 5.96354e-014 -2.22639e-014
rhumerus -26.1839 -1.16818 -82.7015
rradius 37.2578
rwrist -16.2267
rhand -8.28324 -27.1101
rfingers 7.12502
rthumb 17.6363 -56.3302
lclavicle 5.96354e-014 -2.22639e-014
lhumerus -40.7615 32.8843 63.7979
lradius 16.1108
lwrist -17.126
lhand -17.6297 -9.94797
lfingers 7.12502
lthumb 8.62774 19.8557
rfemur 14.8432 -14.0585 12.8255
rtibia 17.9117
rfoot 7.44605 -26.4807
rtoes -4.14686
lfemur -25.0229 4.24899 -22.188
ltibia 28.4256
lfoot -17.0583 10.2209
ltoes 10.5999
1768
root -20.2457 16.9468 4.77964 366.78 76.0944 359.267
lowerback -5.0617 3.08863 -1.83245
upperback 1.18007 4.29491 -1.22227
thorax 4.01296 2.10672 0.124513
lowerneck -21.7234 3.88366 2.25165
upperneck 33.1236 7.90859 -5.69591
head 15.7153 3.03253 -1.17511
rclavicle 1.67476e-014 1.98785e-014
rhumerus -26.5514 -1.06425 -82.8432
rradius 37.3885
rwrist -16.0968
rhand -7.43168 -27.4779
rfingers 7.12502
rthumb 18.4556 -56.6224
lclavicle 1.67476e-014 1.98785e-014
lhumerus -39.778 30.7234 65.7799
lradius 16.5035
lwrist -15.5819
lhand -17.884 -9.19284
lfingers 7.12502
lthumb 8.38225 20.6208
rfemur 13.4654 -14.5836 11.8108
rtibia 21.5894
rfoot 7.67694 -25.8712
rtoes -3.46827
lfemur -24.1625 3.77242 -22.9066
ltibia 28.058
lfoot -17.2697 10.1229
ltoes 10.558
1769
root -20.119 16.9417 4.76635 368.776 76.5532 361.572
lowerback -4.917 2.92616 -2.39752
upperback 1.2267 4.11793 -1.33421
thorax 3.95109 2.00821 0.301355
lowerneck -21.7195 3.87061 2.17248
upperneck 33.0351 7.8419 -5.53937
head 15.6535 3.01699 -1.10833
rclavicle 1.67476e-014 -3.18055e-015
rhumerus -26.789 -0.991784 -83.0129
rradius 37.4706
rwrist -15.992
rhand -6.67884 -27.566
rfingers 7.12502
rthumb 19.1797 -56.6402
lclavicle 1.67476e-014 -3.18055e-015
lhumerus -38.8371 29.1551 67.2881
lradius 16.6541
lwrist -14.7399
lhand -18.2016 -9.2075
lfingers 7.12502
lthumb 8.07572 20.6182
rfemur 12.0973 -14.7972 10.8416
rtibia 25.107
rfoot 7.863 -25.4601
rtoes -2.5745
lfemur -23.2265 3.24497 -23.6181
ltibia 27.5695
lfoot -17.5348 10.1789
ltoes 10.1179
1770
root -20 16.9448 4.75955 370.658 76.8673 363.704
lowerback -4.72473 2.83587 -3.01045
upperback 1.26929 4.03565 -1.42543
thorax 3.85389 1.95614 0.531225
lowerneck -21.871 3.82589 2.17122
upperneck 32.9239 7.72447 -5.48051
head 15.6244 2.97057 -1.10418
rclavicle 1.66482e-014 1.19271e-015
rhumerus -27.0213 -1.0462 -83.139
rradius 37.5763
rwrist -15.954
rhand -6.04895 -27.7178
rfingers 7.12502
rthumb 19.7853 -56.7308
lclavicle 1.66482e-014 1.19271e-015
lhumerus -37.8191 27.7331 68.6602
lradius 16.7107
lwrist -14.1868
lhand -18.3514 -9.47136
lfingers 7.12502
lthumb 7.93114 20.3599
rfemur 10.6747 -14.8654 10.0188
rtibia 28.4048
rfoot 8.05611 -25.1863
rtoes -0.0356271
lfemur -22.3542 3.00169 -24.2504
ltibia 27.036
lfoot -17.4593 10.1714
ltoes 9.33302
1771
root -19.8807 16.9475 4.75309 372.478 77.2395 365.84
lowerback -4.46332 2.7514 -3.57424
upperback 1.31881 3.95298 -1.52206
thorax 3.73028 1.90607 0.725104
lowerneck -21.9367 3.75165 2.18597
upperneck 32.8026 7.53713 -5.37033
head 15.5642 2.90729 -1.0966
rclavicle -1.85864e-014 1.51076e-014
rhumerus -27.2685 -1.30151 -83.2122
rradius 37.524
rwrist -15.7811
rhand -5.3116 -27.5016
rfingers 7.12502
rthumb 20.494 -56.4399
lclavicle -1.85864e-014 1.51076e-014
lhumerus -36.7546 25.8555 70.2144
lradius 16.9264
lwrist -13.0674
lhand -18.5786 -10.6382
lfingers 7.12502
lthumb 7.71191 19.2011
rfemur 9.43761 -15.0364 9.20659
rtibia 31.5173
rfoot 8.33751 -24.9266
rtoes 2.54663
lfemur -21.3694 2.74025 -24.8601
ltibia 26.5142
lfoot -17.2681 10.1301
ltoes 9.44035
1772
root -19.764 16.9483 4.74685 373.85 77.7034 367.569
lowerback -4.13285 2.63133 -4.00575
upperback 1.37204 3.80444 -1.53768
thorax 3.57855 1.82589 0.92164
lowerneck -21.9226 3.6484 1.97711
upperneck 32.6803 7.33794 -5.09998
head 15.4659 2.83652 -0.986761
rclavicle -4.87022e-015 1.47101e-014
rhumerus -27.4997 -1.57164 -83.2276
rradius 37.3869
rwrist -15.5013
rhand -4.6863 -27.1608
rfingers 7.12502
rthumb 21.0948 -56.0333
lclavicle -4.87022e-015 1.47101e-014
lhumerus -35.7888 23.8979 71.8091
lradius 17.2612
lwrist -11.6797
lhand -18.9622 -12.5047
lfingers 7.12502
lthumb 7.34167 17.348
rfemur 8.29727 -15.2114 8.58925
rtibia 34.5158
rfoot 9.20092 -24.9216
rtoes 4.38142
lfemur -20.3367 2.49241 -25.3138
ltibia 26.0026
lfoot -17.1868 9.91723
ltoes 10.0613
1773
root -19.6568 16.952 4.7426 374.865 78.1326 368.818
lowerback -3.76789 2.50602 -4.40497
upperback 1.36762 3.63443 -1.44777
thorax 3.34577 1.73675 1.20537
lowerneck -21.9258 3.56883 1.6768
upperneck 32.5439 7.25171 -4.93088
head 15.3748 2.78745 -0.881106
rclavicle -5.72997e-014 1.35174e-014
rhumerus -27.7461 -1.69795 -83.1777
rradius 37.355
rwrist -15.3499
rhand -4.29507 -27.3555
rfingers 7.12502
rthumb 21.4706 -56.1856
lclavicle -5.72997e-014 1.35174e-014
lhumerus -35.0115 22.8652 72.8798
lradius 17.3192
lwrist -11.4706
lhand -18.9277 -12.7043
lfingers 7.12502
lthumb 7.3749 17.1471
rfemur 6.9423 -15.1794 8.26169
rtibia 37.3978
rfoot 10.3019 -24.8415
rtoes 6.44687
lfemur -19.5224 2.39796 -25.6269
ltibia 25.5531
lfoot -17.0552 9.6236
ltoes 10.0911
1774
root -19.5517 16.9492 4.73951 376.545 78.4332 370.718
lowerback -3.45348 2.42444 -4.96629
upperback 1.3512 3.53208 -1.39378
thorax 3.12127 1.67946 1.54963
lowerneck -21.8398 3.51007 1.44582
upperneck 32.4302 7.21316 -4.85282
head 15.2858 2.7579 -0.817529
rclavicle -1.56543e-014 4.77083e-015
rhumerus -28.1516 -1.75175 -83.1135
rradius 37.4549
rwrist -15.4145
rhand -4.1423 -27.3131
rfingers 7.12502
rthumb 21.6173 -56.1265
lclavicle -1.56543e-014 4.77083e-015
lhumerus -34.2848 22.1199 73.7234
lradius 17.2448
lwrist -11.7006
lhand -18.6154 -11.1985
lfingers 7.12502
lthumb 7.67637 18.6422
rfemur 5.51817 -15.041 7.7909
rtibia 40.1501
rfoot 10.6626 -23.9577
rtoes 6.03942
lfemur -18.7442 2.24225 -26.0795
ltibia 25.1403
lfoot -16.9375 9.48677
ltoes 10.2435
1775
root -19.4475 16.9378 4.73546 378.889 78.8733 373.401
lowerback -3.05483 2.28959 -5.5606
upperback 1.37248 3.35443 -1.38602
thorax 2.8973 1.58568 1.85923
lowerneck -21.6712 3.45574 1.21148
upperneck 32.3113 7.14803 -4.68486
head 15.1693 2.73225 -0.722777
rclavicle -3.13086e-014 -7.15625e-015
rhumerus -28.6171 -1.76708 -83.0836
rradius 37.5415
rwrist -15.5896
rhand -4.20082 -27.059
rfingers 7.12502
rthumb 21.5611 -55.8788
lclavicle -3.13086e-014 -7.15625e-015
lhumerus -33.463 20.6299 74.913
lradius 17.3917
lwrist -10.9839
lhand -18.357 -10.2229
lfingers 7.12502
lthumb 7.92576 19.6086
rfemur 4.34837 -15.1834 7.11405
rtibia 42.7761
rfoot 10.1881 -22.2847
rtoes 4.49608
lfemur -17.8193 1.99407 -26.6578
ltibia 24.7293
lfoot -16.8427 9.30232
ltoes 10.0814
1776
root -19.3391 16.9363 4.73029 380.676 79.2671 375.345
lowerback -2.85854 2.17572 -5.99806
upperback 1.38205 3.20614 -1.33527
thorax 2.78217 1.50649 2.13843
lowerneck -21.6519 3.40794 1.04805
upperneck 32.1887 7.06917 -4.54653
head 15.0898 2.69989 -0.653279
rclavicle 4.83047e-014 -3.10104e-014
rhumerus -28.8376 -1.94145 -83.0011
rradius 37.3573
rwrist -15.6702
rhand -4.33862 -27.5223
rfingers 7.12502
rthumb 21.4288 -56.3572
lclavicle 4.83047e-014 -3.10104e-014
lhumerus -32.5547 19.0605 76.1591
lradius 17.5944
lwrist -10.1269
lhand -18.2648 -10.61
lfingers 7.12502
lthumb 8.01478 19.218
rfemur 3.05234 -15.3391 6.69081
rtibia 45.2128
rfoot 9.44306 -20.3038
rtoes 5.02681
lfemur -17.0915 1.86501 -27.0583
ltibia 24.3864
lfoot -16.7762 9.05205
ltoes 9.45357
